<svg width="24" height="24" viewBox="0 0 24 24" fill="none" xmlns="http://www.w3.org/2000/svg">
<path d="M12.7219 11.2803C13.0121 11.5714 13.099 12.0084 12.9413 12.3881C12.7843 12.7678 12.4131 13.015 12.0021 13.015C11.5912 13.015 11.22 12.7678 11.063 12.3881C10.9052 12.0084 10.9921 11.5714 11.2824 11.2803C11.4714 11.0862 11.7313 10.9774 12.0021 10.9774C12.273 10.9774 12.5329 11.0862 12.7219 11.2803ZM18.365 18.3628C16.6774 20.0512 14.3883 20.9996 12.0013 21.0004C9.61424 21.0004 7.32439 20.0521 5.63675 18.3645C3.94838 16.6762 3 14.3871 3 12C3 9.61295 3.94838 7.32396 5.63675 5.63546C7.32428 3.94794 9.61424 2.99957 12.0013 2.99957C14.3883 3.00042 16.6773 3.9488 18.365 5.63719C20.0525 7.32472 21 9.61381 21 12C21 14.3862 20.0525 16.6754 18.365 18.3628ZM15.3679 14.3043L13.8652 10.5875V10.5867C13.785 10.3808 13.6213 10.2171 13.4155 10.137L9.69783 8.63424C9.39409 8.50514 9.04222 8.57349 8.80935 8.80721C8.57563 9.04008 8.50729 9.39193 8.63638 9.6957L10.1391 13.4125V13.4133C10.2193 13.6192 10.383 13.7829 10.5888 13.863L14.3056 15.3658H14.3064C14.6102 15.4949 14.9621 15.4265 15.1949 15.1928C15.4286 14.9599 15.497 14.6081 15.3679 14.3043Z" fill="black"/>
</svg>
