<svg width="25" height="25" viewBox="0 0 25 25" fill="none" xmlns="http://www.w3.org/2000/svg">
<path d="M21.8824 11.5233V20.5305C21.8824 21.2489 21.3119 21.8307 20.608 21.8307H16.7019C15.9979 21.8307 15.4274 21.2489 15.4274 20.5305V16.3438C15.4274 15.6286 15.1405 14.9793 14.6817 14.5044C14.2526 14.0673 13.6684 13.7828 13.0159 13.7474C11.5405 13.6679 10.3295 14.9769 10.3295 16.4845V20.5296C10.3295 21.248 9.75893 21.8298 9.05499 21.8298H5.15691C4.45297 21.8298 3.88245 21.248 3.88245 20.5296V11.5216C3.88245 10.7172 4.24726 9.95785 4.87084 9.46607L11.3196 4.37381C12.2373 3.649 13.5205 3.649 14.439 4.37381L20.8925 9.46689C21.5169 9.95947 21.8817 10.7188 21.8817 11.5232L21.8824 11.5233Z" fill="black"/>
</svg>
