<svg width="25" height="25" viewBox="0 0 25 25" fill="none" xmlns="http://www.w3.org/2000/svg">
<path d="M5.50919 14.0837L4.65521 14.7869C3.85324 15.4479 3.64879 16.5786 4.16785 17.4767L4.50099 18.0539C5.02095 18.9537 6.10318 19.3388 7.0743 18.9775L8.11158 18.5888C8.30899 18.5148 8.52756 18.5324 8.71175 18.6382L9.93939 19.3476C10.1227 19.4525 10.2478 19.6332 10.2822 19.842L10.4637 20.9339C10.6347 21.958 11.5116 22.7009 12.5489 22.7009H13.2151C14.2533 22.7009 15.1302 21.958 15.3011 20.9331L15.4827 19.842C15.5179 19.6323 15.6431 19.4525 15.8255 19.3467L17.0531 18.6373C17.2373 18.5316 17.4559 18.5131 17.6542 18.588L18.6906 18.9766C19.6644 19.3406 20.7449 18.9511 21.2639 18.0521L21.597 17.4758C22.1161 16.5769 21.9117 15.4453 21.1097 14.7851L20.2548 14.0819C20.0927 13.9479 19.9992 13.7487 19.9992 13.5372V12.1192C19.9992 11.9077 20.0927 11.7094 20.2548 11.5755H20.2557L21.1097 10.8722C21.9117 10.2112 22.1161 9.08053 21.597 8.18246L21.2639 7.60522C20.7439 6.70542 19.6617 6.3203 18.6906 6.68161L17.6533 7.07027C17.4568 7.1443 17.2373 7.12668 17.0531 7.02092L15.8255 6.31149C15.6422 6.20662 15.5171 6.02596 15.4827 5.81709L15.3011 4.72518C15.1293 3.7029 14.2524 2.95996 13.2151 2.95996H12.5489C11.5107 2.95996 10.6338 3.7029 10.4629 4.72782L10.2813 5.81885C10.2461 6.0286 10.1209 6.20839 9.93851 6.31413L8.71087 7.02356C8.52668 7.12932 8.30723 7.14782 8.10982 7.07291L7.07342 6.68425C6.09959 6.32028 5.01912 6.70893 4.50011 7.60786L4.16785 8.18334C3.64877 9.08226 3.85324 10.2138 4.65521 10.874L5.51007 11.5772C5.67223 11.7112 5.76564 11.9104 5.76564 12.121V13.539C5.76564 13.7514 5.67135 13.9497 5.50919 14.0837ZM12.8821 9.30524C14.8263 9.30524 16.4073 10.8863 16.4073 12.8304C16.4073 14.7745 14.8263 16.3556 12.8821 16.3556C10.938 16.3556 9.35697 14.7745 9.35697 12.8304C9.35697 10.8863 10.938 9.30524 12.8821 9.30524Z" fill="black"/>
</svg>
