<svg width="24" height="25" viewBox="0 0 24 25" fill="none" xmlns="http://www.w3.org/2000/svg">
<path fill-rule="evenodd" clip-rule="evenodd" d="M7.18706 15.6688C6.54812 15.3791 5.94957 14.9719 5.42457 14.4469C3.083 12.1051 3.083 8.30251 5.42457 5.96095C7.76638 3.61914 11.5688 3.61914 13.9106 5.96095C14.4356 6.48594 14.843 7.08425 15.1327 7.72343C11.6577 7.32968 8.32022 9.52726 7.38826 13.0061C7.1486 13.9003 7.08898 14.8005 7.18706 15.6688Z" fill="black"/>
<path fill-rule="evenodd" clip-rule="evenodd" d="M8.53391 13.313C9.39111 10.114 12.6841 8.21281 15.8831 9.07002C19.0819 9.92722 20.9831 13.2202 20.1261 16.419C19.2689 19.618 15.9759 21.5192 12.7769 20.662C9.57813 19.805 7.67695 16.512 8.53391 13.313Z" fill="black"/>
<path fill-rule="evenodd" clip-rule="evenodd" d="M18.9278 7.58257L18.6086 7.50132C18.5355 7.48257 18.4622 7.47848 18.3918 7.48714C18.3211 7.49555 18.2509 7.51695 18.1843 7.55228C18.1088 7.59219 18.0456 7.64627 17.9959 7.70973C17.9463 7.77271 17.9086 7.84699 17.8877 7.92992C17.8689 8.003 17.8648 8.07608 17.8735 8.14675C17.8819 8.21742 17.9033 8.28761 17.9384 8.3542L18.6487 9.69217C18.7278 9.84121 18.8668 9.94962 19.0307 9.99C19.1946 10.0304 19.368 9.9989 19.5074 9.90371L20.7415 9.0602C20.7999 9.0203 20.849 8.97174 20.8881 8.91741L20.8978 8.90347C20.9353 8.84819 20.9641 8.78545 20.9817 8.7167C21.003 8.63232 21.0052 8.54771 20.9908 8.46718C20.9766 8.38665 20.9456 8.3078 20.8966 8.23593C20.8564 8.17752 20.8079 8.12824 20.7535 8.0893L20.7398 8.07968C20.6843 8.04194 20.6216 8.0131 20.553 7.99579L20.0985 7.88016C20.26 6.22056 19.2026 4.63692 17.5391 4.19125C16.4976 3.91217 15.4387 4.13813 14.623 4.71889C14.3565 4.90879 14.2942 5.27946 14.4841 5.54605C14.674 5.81263 15.0447 5.87513 15.3115 5.68499C15.8485 5.30254 16.5461 5.15326 17.2322 5.33716C18.2658 5.61408 18.9442 6.5583 18.9278 7.58257Z" fill="black"/>
<path fill-rule="evenodd" clip-rule="evenodd" d="M5.07216 17.4897L5.39139 17.5709C5.46447 17.5897 5.53778 17.5938 5.60822 17.5851C5.67889 17.5767 5.74908 17.5553 5.81567 17.52C5.89115 17.4801 5.95437 17.426 6.00413 17.3625C6.05365 17.2996 6.09139 17.2253 6.1123 17.1423C6.13105 17.0693 6.13514 16.9962 6.12648 16.9255C6.11807 16.8548 6.09667 16.7847 6.06158 16.7181L5.35125 15.3801C5.27216 15.2311 5.13322 15.1227 4.96928 15.0823C4.80534 15.0419 4.63202 15.0734 4.4926 15.1686L3.25848 16.0121C3.20006 16.052 3.15103 16.1005 3.11184 16.1549L3.10223 16.1688C3.06473 16.2241 3.03588 16.2868 3.01833 16.3556C2.99694 16.4399 2.99478 16.5246 3.0092 16.6051C3.02338 16.6856 3.05439 16.7645 3.10343 16.8363C3.14357 16.8948 3.19213 16.944 3.24646 16.983L3.26016 16.9926C3.31569 17.0303 3.37843 17.0592 3.44694 17.0765L3.9015 17.1921C3.73996 18.8517 4.79741 20.4353 6.46085 20.881C7.50243 21.1601 8.56132 20.9341 9.37694 20.3534C9.64352 20.1635 9.70578 19.7928 9.51588 19.5262C9.32597 19.2596 8.9553 19.1971 8.68848 19.3873C8.15147 19.7697 7.45387 19.919 6.76782 19.7351C5.73418 19.4582 5.05582 18.514 5.07216 17.4897Z" fill="black"/>
</svg>
