<svg width="24" height="24" viewBox="0 0 24 24" fill="none" xmlns="http://www.w3.org/2000/svg">
<path d="M9.14696 11.7582C9.97367 12.368 10.9729 12.6964 11.9999 12.6964C13.027 12.6964 14.0262 12.368 14.8529 11.7582C16.1265 10.8505 16.8818 9.38181 16.8783 7.81806C16.8783 6.07491 15.9488 4.46508 14.439 3.5931C12.9293 2.72198 11.0704 2.72198 9.56065 3.5931C8.05097 4.46512 7.12135 6.075 7.12135 7.81806C7.11787 9.38174 7.87337 10.8506 9.14696 11.7582Z" fill="black"/>
<path d="M20.9858 19.2291C20.6217 16.3186 18.8689 13.7653 16.2834 12.3802C15.9044 12.7478 15.4758 13.0606 15.0107 13.3097C13.1351 14.3376 10.8649 14.3376 8.98935 13.3097C8.52417 13.0606 8.09556 12.7478 7.71662 12.3802C5.13103 13.7653 3.37838 16.3186 3.0142 19.2291C2.95235 19.6899 3.09435 20.1551 3.40447 20.5018C3.71459 20.8555 4.16148 21.0585 4.63104 21.0593H19.369C19.8385 21.0585 20.2854 20.8555 20.5955 20.5018C20.9057 20.1551 21.0476 19.6899 20.9858 19.2291Z" fill="black"/>
</svg>
