<svg width="24" height="25" viewBox="0 0 24 25" fill="none" xmlns="http://www.w3.org/2000/svg">
<path d="M17.3984 20.743H6.59841C4.61313 20.743 2.99841 19.1282 2.99841 17.143V8.57937C2.99841 6.72087 4.44892 5.1443 6.30062 4.99128L14.5491 4.30728C15.3861 4.24128 16.2134 4.52402 16.8299 5.09027C17.4449 5.65652 17.7974 6.46127 17.7974 7.2975V8.16525C19.5952 8.36475 20.9977 9.89325 20.9977 11.7428V17.1428C20.9977 19.1281 19.3829 20.7428 17.3977 20.7428L17.3984 20.743ZM14.8026 5.49777C14.7516 5.49777 14.7006 5.49927 14.6488 5.50377L6.40031 6.18777C5.15606 6.29127 4.19826 7.33077 4.19826 8.57952V17.1431C4.19826 18.4683 5.27302 19.5431 6.59826 19.5431H17.3983C18.7235 19.5431 19.7983 18.4683 19.7983 17.1431V11.7431C19.7983 10.4179 18.7235 9.3431 17.3983 9.3431H7.43442C7.10292 9.3431 6.83442 9.07461 6.83442 8.7431C6.83442 8.41159 7.10292 8.1431 7.43442 8.1431H16.5972V7.38485C16.5972 6.89136 16.4345 6.39711 16.0895 6.0446C15.7422 5.68909 15.2862 5.49784 14.8018 5.49784L14.8026 5.49777Z" fill="black"/>
<path d="M8.63613 6.00174L7.00338 6.15024C6.49037 6.19674 6.09814 6.6265 6.09814 7.14175C6.09814 7.6915 6.54363 8.14376 7.09339 8.14376H8.63615V9.337L3.59845 9.33625V7.86626C3.59845 6.3475 4.82921 5.11682 6.34789 5.11682H8.63615L8.63613 6.00174Z" fill="black"/>
<path d="M20.3924 11.6312C20.3924 9.70448 18.8309 8.14294 16.9042 8.14294H3.59839V17.2449C3.59839 18.8994 4.93939 20.2405 6.59397 20.2405H17.3978C19.0523 20.2405 20.3934 18.8995 20.3934 17.2449V11.6312H20.3924ZM11.634 15.2343C11.3025 15.2343 11.034 14.9658 11.034 14.6343C11.034 14.3028 11.3025 14.0343 11.634 14.0343C11.9655 14.0343 12.234 14.3028 12.234 14.6343C12.234 14.9658 11.9655 15.2343 11.634 15.2343ZM15.5984 15.8343C14.8694 15.8343 14.2926 15.1848 14.4149 14.4325C14.5109 13.843 15.0644 13.4343 15.6629 13.4343H18.3493C19.0123 13.4343 19.5493 13.9713 19.5493 14.6343C19.5493 15.2973 19.0123 15.8343 18.3493 15.8343H15.5984Z" fill="black"/>
</svg>
