<svg width="49" height="50" viewBox="0 0 49 50" fill="none" xmlns="http://www.w3.org/2000/svg">
<g filter="url(#filter0_di_237_45)">
<mask id="mask0_237_45" style="mask-type:luminance" maskUnits="userSpaceOnUse" x="0" y="0" width="49" height="48">
<path d="M0.5 0H48.5V48H0.5V0Z" fill="white"/>
</mask>
<g mask="url(#mask0_237_45)">
<mask id="mask1_237_45" style="mask-type:alpha" maskUnits="userSpaceOnUse" x="0" y="-1" width="49" height="49">
<path d="M23.1421 8.02307C23.1421 3.43787 23.1421 1.14515 21.6483 0.28547C20.1548 -0.57469 18.163 0.57179 14.18 2.86427L11.3005 4.52171C7.31721 6.81443 5.32569 7.96091 5.32569 9.68027C5.32569 11.3999 7.31721 12.5461 11.3005 14.8388L14.18 16.4965C18.1633 18.7892 20.1551 19.9357 21.6488 19.0758C23.1423 18.2161 23.1423 15.9234 23.1423 11.3382L23.1421 8.02307ZM9.94233 17.1839C5.95905 14.8911 3.96753 13.7447 2.47353 14.6046C0.980011 15.4645 0.980011 17.757 0.980011 22.3424V25.6573C0.980011 30.2427 0.980011 32.5352 2.47377 33.3951C3.96753 34.2548 5.95905 33.1086 9.94233 30.8159L12.8218 29.1584C16.8051 26.8657 18.7969 25.7195 18.7969 23.9999C18.7969 22.2803 16.8051 21.134 12.8218 18.8413L9.94233 17.1839ZM11.3002 33.1607C7.31697 35.4534 5.32545 36.5996 5.32545 38.3192C5.32545 40.0386 7.31697 41.1851 11.3002 43.4778L14.18 45.1352C18.1633 47.4277 20.1551 48.5742 21.6488 47.7145C23.1423 46.8546 23.1423 44.5619 23.1423 39.9767V36.6618C23.1423 32.0763 23.1423 29.7836 21.6486 28.9239C20.1551 28.0643 18.1633 29.2105 14.18 31.5032L11.3002 33.1607ZM25.8579 39.9764C25.8579 44.5619 25.8579 46.8546 27.3517 47.7143C28.8454 48.5742 30.837 47.4277 34.8202 45.135L37.6998 43.4778C41.683 41.1851 43.6746 40.0386 43.6746 38.3192C43.6746 36.5996 41.683 35.4534 37.6998 33.1607L34.8202 31.5032C30.837 29.2105 28.8454 28.0643 27.3517 28.9239C25.8579 29.7836 25.8579 32.0763 25.8579 36.6618V39.9764ZM39.0577 30.8159C43.041 33.1086 45.0325 34.2548 46.5262 33.3951C48.02 32.5352 48.02 30.2425 48.02 25.6573V22.3424C48.02 17.7572 48.02 15.4645 46.5262 14.6048C45.0325 13.7449 43.041 14.8914 39.0577 17.1839L36.1782 18.8413C32.1949 21.134 30.2034 22.2805 30.2034 23.9999C30.2034 25.7195 32.1949 26.8657 36.1782 29.1584L39.0577 30.8159ZM37.6998 14.8391C41.683 12.5464 43.6746 11.4001 43.6746 9.68051C43.6746 7.96115 41.683 6.81491 37.6998 4.52195L34.8202 2.86475C30.837 0.57203 28.8454 -0.57445 27.3517 0.28547C25.8579 1.14515 25.8579 3.43787 25.8579 8.02307V11.3379C25.8579 15.9234 25.8579 18.2161 27.3517 19.0758C28.8454 19.9355 30.837 18.7892 34.8202 16.4965L37.6998 14.8391Z" fill="white"/>
</mask>
<g mask="url(#mask1_237_45)">
<path d="M48.5 -6.10352e-05H0.5V47.9999H48.5V-6.10352e-05Z" fill="#F9F9F9"/>
<path d="M48.5 -6.10352e-05H0.5V47.9999H48.5V-6.10352e-05Z" fill="#F9F9F9"/>
<g filter="url(#filter1_f_237_45)">
<path d="M16.455 53.9464C25.2039 48.0729 28.4562 37.5916 23.7193 30.5357C18.9824 23.4797 8.05004 22.5212 -0.698854 28.3947C-9.44775 34.2682 -12.7001 44.7495 -7.96321 51.8054C-3.22631 58.8613 7.70609 59.8198 16.455 53.9464Z" fill="#F9F9F9"/>
<path d="M56.1799 -3.6001H29.5399V25.4399H56.1799V-3.6001Z" fill="#F9F9F9"/>
<path d="M9.37998 23.9999C17.3329 23.9999 23.78 19.1646 23.78 13.1999C23.78 7.23523 17.3329 2.3999 9.37998 2.3999C1.42708 2.3999 -5.02002 7.23523 -5.02002 13.1999C-5.02002 19.1646 1.42708 23.9999 9.37998 23.9999Z" fill="#F9F9F9"/>
<path d="M56.66 29.0398H24.5V58.0798H56.66V29.0398Z" fill="#F9F9F9"/>
</g>
</g>
</g>
<mask id="mask2_237_45" style="mask-type:alpha" maskUnits="userSpaceOnUse" x="0" y="-1" width="49" height="49">
<path d="M23.1421 8.02307C23.1421 3.43787 23.1421 1.14515 21.6483 0.28547C20.1548 -0.57469 18.163 0.57179 14.18 2.86427L11.3005 4.52171C7.31721 6.81443 5.32569 7.96091 5.32569 9.68027C5.32569 11.3999 7.31721 12.5461 11.3005 14.8388L14.18 16.4965C18.1633 18.7892 20.1551 19.9357 21.6488 19.0758C23.1423 18.2161 23.1423 15.9234 23.1423 11.3382L23.1421 8.02307ZM9.94233 17.1839C5.95905 14.8911 3.96753 13.7447 2.47353 14.6046C0.980011 15.4645 0.980011 17.757 0.980011 22.3424V25.6573C0.980011 30.2427 0.980011 32.5352 2.47377 33.3951C3.96753 34.2548 5.95905 33.1086 9.94233 30.8159L12.8218 29.1584C16.8051 26.8657 18.7969 25.7195 18.7969 23.9999C18.7969 22.2803 16.8051 21.134 12.8218 18.8413L9.94233 17.1839ZM11.3002 33.1607C7.31697 35.4534 5.32545 36.5996 5.32545 38.3192C5.32545 40.0386 7.31697 41.1851 11.3002 43.4778L14.18 45.1352C18.1633 47.4277 20.1551 48.5742 21.6488 47.7145C23.1423 46.8546 23.1423 44.5619 23.1423 39.9767V36.6618C23.1423 32.0763 23.1423 29.7836 21.6486 28.9239C20.1551 28.0643 18.1633 29.2105 14.18 31.5032L11.3002 33.1607ZM25.8579 39.9764C25.8579 44.5619 25.8579 46.8546 27.3517 47.7143C28.8454 48.5742 30.837 47.4277 34.8202 45.135L37.6998 43.4778C41.683 41.1851 43.6746 40.0386 43.6746 38.3192C43.6746 36.5996 41.683 35.4534 37.6998 33.1607L34.8202 31.5032C30.837 29.2105 28.8454 28.0643 27.3517 28.9239C25.8579 29.7836 25.8579 32.0763 25.8579 36.6618V39.9764ZM39.0577 30.8159C43.041 33.1086 45.0325 34.2548 46.5262 33.3951C48.02 32.5352 48.02 30.2425 48.02 25.6573V22.3424C48.02 17.7572 48.02 15.4645 46.5262 14.6048C45.0325 13.7449 43.041 14.8914 39.0577 17.1839L36.1782 18.8413C32.1949 21.134 30.2034 22.2805 30.2034 23.9999C30.2034 25.7195 32.1949 26.8657 36.1782 29.1584L39.0577 30.8159ZM37.6998 14.8391C41.683 12.5464 43.6746 11.4001 43.6746 9.68051C43.6746 7.96115 41.683 6.81491 37.6998 4.52195L34.8202 2.86475C30.837 0.57203 28.8454 -0.57445 27.3517 0.28547C25.8579 1.14515 25.8579 3.43787 25.8579 8.02307V11.3379C25.8579 15.9234 25.8579 18.2161 27.3517 19.0758C28.8454 19.9355 30.837 18.7892 34.8202 16.4965L37.6998 14.8391Z" fill="white"/>
</mask>
<g mask="url(#mask2_237_45)">
<g style="mix-blend-mode:overlay">
<path d="M48.5 -6.10352e-05H0.5V47.9999H48.5V-6.10352e-05Z" fill="#F9F9F9"/>
</g>
</g>
</g>
<defs>
<filter id="filter0_di_237_45" x="0.5" y="-6.10352e-05" width="48" height="49.2001" filterUnits="userSpaceOnUse" color-interpolation-filters="sRGB">
<feFlood flood-opacity="0" result="BackgroundImageFix"/>
<feColorMatrix in="SourceAlpha" type="matrix" values="0 0 0 0 0 0 0 0 0 0 0 0 0 0 0 0 0 0 127 0" result="hardAlpha"/>
<feOffset dy="1.2"/>
<feComposite in2="hardAlpha" operator="out"/>
<feColorMatrix type="matrix" values="0 0 0 0 0.513726 0 0 0 0 0.513726 0 0 0 0 0.513726 0 0 0 1 0"/>
<feBlend mode="normal" in2="BackgroundImageFix" result="effect1_dropShadow_237_45"/>
<feBlend mode="normal" in="SourceGraphic" in2="effect1_dropShadow_237_45" result="shape"/>
<feColorMatrix in="SourceAlpha" type="matrix" values="0 0 0 0 0 0 0 0 0 0 0 0 0 0 0 0 0 0 127 0" result="hardAlpha"/>
<feOffset/>
<feGaussianBlur stdDeviation="1"/>
<feComposite in2="hardAlpha" operator="arithmetic" k2="-1" k3="1"/>
<feColorMatrix type="matrix" values="0 0 0 0 0 0 0 0 0 0 0 0 0 0 0 0 0 0 0.3 0"/>
<feBlend mode="normal" in2="shape" result="effect2_innerShadow_237_45"/>
</filter>
<filter id="filter1_f_237_45" x="-29.3395" y="-22.8001" width="105.2" height="100.08" filterUnits="userSpaceOnUse" color-interpolation-filters="sRGB">
<feFlood flood-opacity="0" result="BackgroundImageFix"/>
<feBlend mode="normal" in="SourceGraphic" in2="BackgroundImageFix" result="shape"/>
<feGaussianBlur stdDeviation="9.6" result="effect1_foregroundBlur_237_45"/>
</filter>
</defs>
</svg>
