<svg width="24" height="24" viewBox="0 0 24 24" fill="none" xmlns="http://www.w3.org/2000/svg">
<g clip-path="url(#clip0_210_340)">
<mask id="mask0_210_340" style="mask-type:luminance" maskUnits="userSpaceOnUse" x="0" y="0" width="24" height="24">
<path d="M0 0H24V24H0V0Z" fill="white"/>
</mask>
<g mask="url(#mask0_210_340)">
<mask id="mask1_210_340" style="mask-type:alpha" maskUnits="userSpaceOnUse" x="0" y="0" width="24" height="24">
<path d="M11.321 4.01157C11.321 1.71897 11.321 0.572605 10.5741 0.142765C9.82739 -0.287315 8.83151 0.285926 6.83999 1.43217L5.40023 2.26089C3.40859 3.40725 2.41283 3.98049 2.41283 4.84017C2.41283 5.69997 3.40859 6.27309 5.40023 7.41945L6.83999 8.24829C8.83163 9.39465 9.82751 9.96789 10.5744 9.53793C11.3211 9.10809 11.3211 7.96173 11.3211 5.66913L11.321 4.01157ZM4.72115 8.59196C2.72951 7.44561 1.73375 6.87237 0.98675 7.30233C0.23999 7.73229 0.23999 8.87853 0.23999 11.1712V12.8287C0.23999 15.1214 0.23999 16.2676 0.98687 16.6976C1.73375 17.1274 2.72951 16.5543 4.72115 15.408L6.16091 14.5792C8.15255 13.4329 9.14843 12.8598 9.14843 12C9.14843 11.1402 8.15255 10.567 6.16091 9.42068L4.72115 8.59196ZM5.40011 16.5804C3.40847 17.7267 2.41271 18.2998 2.41271 19.1596C2.41271 20.0193 3.40847 20.5926 5.40011 21.7389L6.83999 22.5676C8.83163 23.7139 9.82751 24.2871 10.5744 23.8573C11.3211 23.4273 11.3211 22.281 11.3211 19.9884V18.3309C11.3211 16.0382 11.3211 14.8918 10.5743 14.462C9.82751 14.0322 8.83163 14.6053 6.83999 15.7516L5.40011 16.5804ZM12.6789 19.9882C12.6789 22.281 12.6789 23.4273 13.4258 23.8572C14.1727 24.2871 15.1685 23.7139 17.1601 22.5675L18.5999 21.7389C20.5915 20.5926 21.5873 20.0193 21.5873 19.1596C21.5873 18.2998 20.5915 17.7267 18.5999 16.5804L17.1601 15.7516C15.1685 14.6053 14.1727 14.0322 13.4258 14.462C12.6789 14.8918 12.6789 16.0382 12.6789 18.3309V19.9882ZM19.2788 15.408C21.2705 16.5543 22.2662 17.1274 23.0131 16.6976C23.76 16.2676 23.76 15.1213 23.76 12.8287V11.1712C23.76 8.87865 23.76 7.73229 23.0131 7.30245C22.2662 6.87249 21.2705 7.44572 19.2788 8.59196L17.8391 9.42068C15.8474 10.567 14.8517 11.1403 14.8517 12C14.8517 12.8598 15.8474 13.4329 17.8391 14.5792L19.2788 15.408ZM18.5999 7.41957C20.5915 6.27321 21.5873 5.70009 21.5873 4.84029C21.5873 3.98061 20.5915 3.40749 18.5999 2.26101L17.1601 1.43241C15.1685 0.286045 14.1727 -0.287195 13.4258 0.142765C12.6789 0.572605 12.6789 1.71897 12.6789 4.01157V5.66901C12.6789 7.96173 12.6789 9.10809 13.4258 9.53793C14.1727 9.96777 15.1685 9.39465 17.1601 8.24829L18.5999 7.41957Z" fill="white"/>
</mask>
<g mask="url(#mask1_210_340)">
<path d="M24 0H0V24H24V0Z" fill="white"/>
<path d="M24 0H0V24H24V0Z" fill="white"/>
<g filter="url(#filter0_f_210_340)">
<path d="M7.97748 26.9732C12.3519 24.0364 13.9781 18.7958 11.6097 15.2678C9.2412 11.7399 3.775 11.2606 -0.599442 14.1973C-4.97389 17.1341 -6.60007 22.3747 -4.23162 25.9027C-1.86317 29.4306 3.60303 29.9099 7.97748 26.9732Z" fill="white"/>
<path d="M27.84 -1.80002H14.52V12.72H27.84V-1.80002Z" fill="white"/>
<path d="M4.43999 12C8.41644 12 11.64 9.58232 11.64 6.59998C11.64 3.61764 8.41644 1.19998 4.43999 1.19998C0.46354 1.19998 -2.76001 3.61764 -2.76001 6.59998C-2.76001 9.58232 0.46354 12 4.43999 12Z" fill="white"/>
<path d="M28.08 14.52H12V29.04H28.08V14.52Z" fill="white"/>
</g>
</g>
</g>
<mask id="mask2_210_340" style="mask-type:alpha" maskUnits="userSpaceOnUse" x="0" y="0" width="24" height="24">
<path d="M11.321 4.01157C11.321 1.71897 11.321 0.572605 10.5741 0.142765C9.82739 -0.287315 8.83151 0.285926 6.83999 1.43217L5.40023 2.26089C3.40859 3.40725 2.41283 3.98049 2.41283 4.84017C2.41283 5.69997 3.40859 6.27309 5.40023 7.41945L6.83999 8.24829C8.83163 9.39465 9.82751 9.96789 10.5744 9.53793C11.3211 9.10809 11.3211 7.96173 11.3211 5.66913L11.321 4.01157ZM4.72115 8.59196C2.72951 7.44561 1.73375 6.87237 0.98675 7.30233C0.23999 7.73229 0.23999 8.87853 0.23999 11.1712V12.8287C0.23999 15.1214 0.23999 16.2676 0.98687 16.6976C1.73375 17.1274 2.72951 16.5543 4.72115 15.408L6.16091 14.5792C8.15255 13.4329 9.14843 12.8598 9.14843 12C9.14843 11.1402 8.15255 10.567 6.16091 9.42068L4.72115 8.59196ZM5.40011 16.5804C3.40847 17.7267 2.41271 18.2998 2.41271 19.1596C2.41271 20.0193 3.40847 20.5926 5.40011 21.7389L6.83999 22.5676C8.83163 23.7139 9.82751 24.2871 10.5744 23.8573C11.3211 23.4273 11.3211 22.281 11.3211 19.9884V18.3309C11.3211 16.0382 11.3211 14.8918 10.5743 14.462C9.82751 14.0322 8.83163 14.6053 6.83999 15.7516L5.40011 16.5804ZM12.6789 19.9882C12.6789 22.281 12.6789 23.4273 13.4258 23.8572C14.1727 24.2871 15.1685 23.7139 17.1601 22.5675L18.5999 21.7389C20.5915 20.5926 21.5873 20.0193 21.5873 19.1596C21.5873 18.2998 20.5915 17.7267 18.5999 16.5804L17.1601 15.7516C15.1685 14.6053 14.1727 14.0322 13.4258 14.462C12.6789 14.8918 12.6789 16.0382 12.6789 18.3309V19.9882ZM19.2788 15.408C21.2705 16.5543 22.2662 17.1274 23.0131 16.6976C23.76 16.2676 23.76 15.1213 23.76 12.8287V11.1712C23.76 8.87865 23.76 7.73229 23.0131 7.30245C22.2662 6.87249 21.2705 7.44572 19.2788 8.59196L17.8391 9.42068C15.8474 10.567 14.8517 11.1403 14.8517 12C14.8517 12.8598 15.8474 13.4329 17.8391 14.5792L19.2788 15.408ZM18.5999 7.41957C20.5915 6.27321 21.5873 5.70009 21.5873 4.84029C21.5873 3.98061 20.5915 3.40749 18.5999 2.26101L17.1601 1.43241C15.1685 0.286045 14.1727 -0.287195 13.4258 0.142765C12.6789 0.572605 12.6789 1.71897 12.6789 4.01157V5.66901C12.6789 7.96173 12.6789 9.10809 13.4258 9.53793C14.1727 9.96777 15.1685 9.39465 17.1601 8.24829L18.5999 7.41957Z" fill="white"/>
</mask>
<g mask="url(#mask2_210_340)">
<g style="mix-blend-mode:overlay">
<path d="M24 0H0V24H24V0Z" fill="white"/>
</g>
</g>
</g>
<defs>
<filter id="filter0_f_210_340" x="-14.9198" y="-11.4" width="52.5998" height="50.04" filterUnits="userSpaceOnUse" color-interpolation-filters="sRGB">
<feFlood flood-opacity="0" result="BackgroundImageFix"/>
<feBlend mode="normal" in="SourceGraphic" in2="BackgroundImageFix" result="shape"/>
<feGaussianBlur stdDeviation="4.8" result="effect1_foregroundBlur_210_340"/>
</filter>
<clipPath id="clip0_210_340">
<rect width="24" height="24" fill="white"/>
</clipPath>
</defs>
</svg>
