<svg width="490" height="503" viewBox="0 0 490 503" fill="none" xmlns="http://www.w3.org/2000/svg">
<path d="M245.1 0H245.5C380.4 0 489.8 109.4 489.8 244.3V257.9C489.8 392.8 380.4 502.2 245.5 502.2H245.1C110.2 502.2 0.799988 392.8 0.799988 257.9V244.3C0.799988 109.4 110.2 0 245.1 0Z" fill="#F3BA2F"/>
<path d="M175.088 222.272L245 152.36L314.955 222.301L355.635 181.621L245 71L134.408 181.592L175.088 222.272ZM65 251L105.68 210.32L146.36 251L105.68 291.68L65 251ZM175.088 279.728L245 349.64L314.941 279.699L355.65 320.35L355.635 320.379L245 431L134.408 320.408L134.35 320.35L175.088 279.728ZM343.64 251.014L384.32 210.334L425 251.014L384.32 291.694L343.64 251.014Z" fill="black"/>
<path d="M286.256 250.986H286.27L245 209.701L214.486 240.2L210.987 243.699L203.758 250.928L203.701 250.986L203.758 251.043L245 292.299L286.285 251.014L286.299 250.986H286.256Z" fill="black"/>
</svg>
