<svg width="38" height="38" viewBox="0 0 38 38" fill="none" xmlns="http://www.w3.org/2000/svg">
<path d="M19 38C29.4934 38 38 29.4934 38 19C38 8.50659 29.4934 0 19 0C8.50659 0 0 8.50659 0 19C0 29.4934 8.50659 38 19 38Z" fill="#F49B33"/>
<path d="M25.9988 15.1199C25.813 12.7371 23.7691 11.9028 21.1824 11.6295L21.2407 8.32867L19.2332 8.29588L19.1749 11.5093C18.6466 11.4984 18.1074 11.502 17.5682 11.502L17.6265 8.26673L15.619 8.2303L15.5607 11.5312C15.1271 11.5312 14.6972 11.5348 14.2819 11.5239V11.5129L11.5093 11.4656L11.4729 13.6115C11.4729 13.6115 12.9593 13.6079 12.9338 13.637C13.7463 13.6516 14.005 14.1289 14.0742 14.5369L14.0086 18.2968C14.0633 18.2968 14.1361 18.3005 14.2199 18.3151L14.0086 18.3114L13.9175 23.5797C13.8775 23.8347 13.7208 24.2391 13.1488 24.2318C13.1743 24.2537 11.6878 24.2063 11.6878 24.2063L11.247 26.5964L13.8629 26.6437C14.3475 26.6547 14.8284 26.6692 15.2984 26.6802L15.2401 30.0175L17.2476 30.0502L17.3058 26.7494C17.856 26.7676 18.3916 26.7822 18.9126 26.7931L18.8543 30.0794L20.8617 30.1122L20.92 26.7822C24.3011 26.6474 26.6802 25.8385 27.0299 22.6688C27.3105 20.1185 26.13 18.9563 24.2209 18.4644C25.3941 17.8961 26.1409 16.865 25.9988 15.1199ZM23.0623 22.2098C23.0222 24.7055 18.7523 24.3448 17.3896 24.3229L17.4698 19.8999C18.8324 19.9218 23.1097 19.6048 23.0623 22.2098ZM22.2389 15.9505C22.1988 18.2203 18.6393 17.8924 17.5062 17.8742L17.5755 13.8629C18.7085 13.8811 22.279 13.5824 22.2389 15.9505Z" fill="white"/>
</svg>
