<svg width="490" height="503" viewBox="0 0 490 503" fill="none" xmlns="http://www.w3.org/2000/svg">
<path d="M245.1 0H245.5C380.4 0 489.8 109.4 489.8 244.3V257.9C489.8 392.8 380.4 502.2 245.5 502.2H245.1C110.2 502.2 0.799988 392.8 0.799988 257.9V244.3C0.799988 109.4 110.2 0 245.1 0Z" fill="#232323"/>
<path d="M349.8 189C349 189.9 348 190.6 346.9 191C345.8 191.5 344.6 191.7 343.4 191.7H116.9C108.9 191.7 104.8 181.7 110.4 175.7L147.6 136.2C148.4 135.3 149.4 134.6 150.6 134.1C151.7 133.6 152.9 133.4 154.1 133.4H381.5C389.6 133.4 393.6 143.5 387.9 149.5L349.8 189ZM349.8 365.6C348.1 367.3 345.8 368.3 343.4 368.3H116.9C108.9 368.3 104.8 358.5 110.4 352.7L147.6 314.1C148.4 313.2 149.5 312.5 150.6 312.1C151.7 311.6 152.9 311.4 154.1 311.4H381.5C389.6 311.4 393.6 321.3 387.9 327.1L349.8 365.6ZM349.8 225.1C348.1 223.4 345.8 222.4 343.4 222.4H116.9C108.9 222.4 104.8 232.2 110.4 238L147.6 276.6C148.4 277.5 149.5 278.2 150.6 278.6C151.7 279.1 152.9 279.3 154.1 279.3H381.5C389.6 279.3 393.6 269.4 387.9 263.6L349.8 225.1Z" fill="url(#paint0_linear_169_17)"/>
<defs>
<linearGradient id="paint0_linear_169_17" x1="125.104" y1="371.232" x2="372.539" y2="130.333" gradientUnits="userSpaceOnUse">
<stop stop-color="#CF41E8"/>
<stop offset="1" stop-color="#10F2B0"/>
</linearGradient>
</defs>
</svg>
