<svg width="123" height="124" viewBox="0 0 123 124" fill="none" xmlns="http://www.w3.org/2000/svg">
<path d="M61.2582 123.224C95.0687 123.224 122.478 95.8156 122.478 62.0051C122.478 28.1946 95.0687 0.785797 61.2582 0.785797C27.4477 0.785797 0.0389404 28.1946 0.0389404 62.0051C0.0389404 95.8156 27.4477 123.224 61.2582 123.224Z" fill="#26A17B"/>
<path d="M67.7977 67.6779C67.4038 67.6779 65.1977 67.8355 60.3127 67.8355C56.4521 67.8355 53.6944 67.7567 52.749 67.6779C37.779 67.0476 26.6697 64.4475 26.6697 61.296C26.6697 58.1444 37.8578 55.5444 52.749 54.914V65.0779C53.6944 65.1566 56.5309 65.3142 60.3915 65.3142C65.0401 65.3142 67.325 65.1566 67.7977 65.0779V54.914C82.6889 55.5444 93.877 58.1444 93.877 61.296C93.877 64.3688 82.6889 66.9688 67.7977 67.6779ZM67.7977 53.811V44.7502H88.5981V30.8833H31.8698V44.7502H52.6702V53.811C35.7305 54.5989 23.0454 57.908 23.0454 61.9263C23.0454 65.9445 35.8093 69.2537 52.6702 70.0416V99.1936H67.7189V70.0416C84.7374 69.3325 97.4225 66.0233 97.4225 62.0051C97.4225 57.9868 84.7374 54.5989 67.7977 53.811Z" fill="white"/>
</svg>
